# xmcd CD database file
#
# Track frame offsets:
#	150
#	37737
#	56282
#	72384
#	104807
#	121693
#	149806
#	167131
#	191145
#	202399
#	216769
#
# Disc length: 3130 seconds
#
# Revision: 0
# Processed by: cddbd v1.5.2PL0 Copyright (c) Steve Scherf et al.
# Submitted via: CDex 1.51
#
DISCID=b00c380b
DTITLE=Amir O'Loughlin and the Inayati Ensemble - Merhaba
DYEAR=2001
DGENRE=New Age
TTITLE0=01- Ya Nabi - O Knower of my Heart
TTITLE1=02- Why have I two eyes?
TTITLE2=03- Every step Thy Path
TTITLE3=04- Be like that to me
TTITLE4=05- Truth
TTITLE5=06- The Madzub's Journey
TTITLE6=07- Merhaba
TTITLE7=08- Before
TTITLE8=09- Disclose to Us 
TTITLE9=10- Healing Prayer
TTITLE10=11- Homecoming
EXTD=YEAR: 2001
EXTT0=
EXTT1=
EXTT2=
EXTT3=
EXTT4=
EXTT5=
EXTT6=
EXTT7=
EXTT8=
EXTT9=
EXTT10=
PLAYORDER=
